<svg width="40" height="40" viewBox="0 0 40 40" fill="none" xmlns="http://www.w3.org/2000/svg">
<circle cx="20" cy="20.0088" r="20" fill="#F0DFA1"/>
<path d="M16.4547 13.7115C16.3971 14.4913 14.9918 15.6489 14.2964 16.1303C14.0662 16.4768 14.2005 16.9486 14.2964 17.1411C14.7281 18.7295 20.1597 23.1699 21.023 23.3865C21.8863 23.6031 23.3971 21.1483 24.1885 21.1122C24.9798 21.0761 27.8216 24.4695 27.8935 24.9388C27.9288 25.1692 27.4702 25.9126 26.5986 26.5331C25.6942 27.1769 24.3452 27.6884 22.6417 27.3576C19.2964 26.7077 15.1597 22.8811 12.3539 19.4154C9.54816 15.9498 10.0877 12.8812 10.3036 12.1953C10.5194 11.5094 11.8503 9.81269 12.6777 9.66829C13.505 9.52389 16.5266 12.7368 16.4547 13.7115Z" fill="#8A5982"/>
<path d="M26.5986 26.5331C25.6942 27.1769 24.3452 27.6884 22.6417 27.3576C19.2964 26.7077 15.1597 22.8811 12.3539 19.4154C9.54816 15.9498 10.0877 12.8812 10.3036 12.1953C10.5194 11.5094 11.8503 9.81269 12.6777 9.66829C13.505 9.52389 16.5266 12.7368 16.4547 13.7115C16.3971 14.4913 14.9918 15.6489 14.2964 16.1303C14.0662 16.4768 14.2005 16.9486 14.2964 17.1411C14.7281 18.7295 20.1597 23.1699 21.023 23.3865C21.8863 23.6031 23.3971 21.1483 24.1885 21.1122C24.9798 21.0761 27.8216 24.4695 27.8935 24.9388C27.9288 25.1692 27.4702 25.9126 26.5986 26.5331ZM26.5986 26.5331C26.8863 27.0847 27.2892 28.3323 26.5986 28.9099C25.7352 29.6319 23.1453 31.4008 24.5482 32.3033C25.9511 33.2058 28.541 31.5813 29.4763 32.8448C30.4115 34.1083 29.764 35.4802 27.318 35.408C24.8719 35.3358 23.7928 33.8917 22.8575 33.8556C22.1093 33.8268 20.4355 33.8436 19.6921 33.8556" stroke="black" stroke-width="1.5" stroke-linecap="round"/>
</svg>
