<svg width="41" height="40" viewBox="0 0 41 40" fill="none" xmlns="http://www.w3.org/2000/svg">
<circle cx="20.5" cy="20.0088" r="20" fill="#F0DFA1"/>
<path d="M24.5953 16.7849H23.1118C23.0078 15.8933 22.8622 14.1671 23.1118 13.4607C23.2604 13.0399 23.8408 12.8163 24.7803 12.7043C26.0906 12.5481 27.1663 11.534 27.1663 10.2145C27.1663 8.89491 26.095 7.82059 24.7818 7.9502C22.5636 8.16915 19.9289 8.71411 18.9272 9.87685C17.5133 11.5182 17.5064 15.3739 17.6797 17.0966H15.1504C14.4228 17.0966 13.833 17.6864 13.833 18.414C13.833 20.3542 15.4059 21.9271 17.3461 21.9271H17.6797V29.9367C17.6797 31.4368 18.8957 32.6528 20.3957 32.6528C21.8957 32.6528 23.1118 31.4368 23.1118 29.9367V21.9271H24.5953C26.0152 21.9271 27.1663 20.776 27.1663 19.356C27.1663 17.936 26.0152 16.7849 24.5953 16.7849Z" fill="#2A7BAD" stroke="black" stroke-width="1.5"/>
</svg>
