<svg width="41" height="40" viewBox="0 0 41 40" fill="none" xmlns="http://www.w3.org/2000/svg">
<circle cx="20.5" cy="20.0088" r="20" fill="#F0DFA1"/>
<path d="M16.3779 24.7319C16.5306 23.9237 22.9823 17.8417 26.1891 14.9017C26.2018 14.8499 26.212 14.7385 26.151 14.7074C26.0899 14.6763 25.9474 14.7462 25.8837 14.7851L14.6218 22.828C13.5275 22.2192 11.2318 20.9552 10.8043 20.7687C10.2698 20.5355 10.1553 20.3024 10.1553 19.5642C10.1553 18.9736 10.9442 18.541 11.3387 18.3985L29.4723 10.278C29.7522 10.1614 30.4114 9.99825 30.8084 10.278C31.2054 10.5578 31.3047 11.2235 31.3047 11.5213C30.0576 17.0387 27.3955 28.1977 26.7236 28.695C26.0517 29.1924 22.4734 27.1408 20.7682 26.0529C19.9283 27.62 17.9966 30.6688 16.9887 30.3269C15.7289 29.8995 16.187 25.7421 16.3779 24.7319Z" fill="#6CABD1" stroke="black" stroke-width="1.5"/>
</svg>
