<svg width="23.000000" height="22.000000" viewBox="0 0 23 22" fill="none" xmlns="http://www.w3.org/2000/svg" xmlns:xlink="http://www.w3.org/1999/xlink">
	<desc>
			Created with Pixso.
	</desc>
	<defs/>
	<path id="Vector 18" d="M6.86 15.79C5.66 13.43 3.09 8.68 2.35 8.52C1.43 8.31 -0.1 9.44 0 10.87C0.08 12.02 5.11 20.7 5.53 20.7C5.73 20.84 6.33 20.89 7.27 20.7C8.83 20.38 9.76 18.93 10.45 17.5C12.14 13.96 14.64 9.02 15.97 7.29C18.02 4.63 21.91 0.94 21.6 0.12C21.29 -0.69 16.48 2.38 11.87 8.83C8.19 13.98 7 15.62 6.86 15.79Z" fill="#82B241" fill-opacity="1.000000" fill-rule="evenodd"/>
	<path id="Vector 18" d="M2.35 8.52C1.43 8.31 -0.1 9.44 0 10.87C0.08 12.02 5.11 20.7 5.53 20.7C5.73 20.84 6.33 20.89 7.27 20.7C8.83 20.38 9.76 18.93 10.45 17.5C12.14 13.96 14.64 9.02 15.97 7.29C18.02 4.63 21.91 0.94 21.6 0.12C21.29 -0.69 16.48 2.38 11.87 8.83C8.19 13.98 7 15.62 6.86 15.79C5.66 13.43 3.09 8.68 2.35 8.52Z" stroke="#000000" stroke-opacity="1.000000" stroke-width="1.500000"/>
</svg>
