<svg width="126.000000" height="126.000000" viewBox="0 0 126 126" fill="none" xmlns="http://www.w3.org/2000/svg" xmlns:xlink="http://www.w3.org/1999/xlink">
	<desc>
			Created with Pixso.
	</desc>
	<defs>
		<clipPath id="clip281_958">
			<rect id="OSLO" rx="63.000000" width="126.000000" height="126.000000" transform="matrix(-1 0 0 1 126 0)" fill="white" fill-opacity="0"/>
		</clipPath>
	</defs>
	<rect id="OSLO" rx="63.000000" width="126.000000" height="126.000000" transform="matrix(-1 0 0 1 126 0)" fill="#F0DFA1" fill-opacity="1.000000"/>
	<g clip-path="url(#clip281_958)">
		<path id="Vector" d="M12.91 57.38C20.16 55.18 28.43 60.62 32.1 50.83C34.12 45.41 33.66 37.53 39.78 34.6C42.27 33.4 45.16 33.84 46.99 35.53C47.25 35.61 47.45 35.77 47.51 36.06C48.13 36.82 48.59 37.75 48.77 38.86C48.96 39.96 47.25 40.43 47.07 39.33C46.99 38.89 46.86 38.51 46.72 38.14C46.64 38.16 46.59 38.16 46.52 38.18C43.06 44.66 47.29 53.25 47.49 60.47C46.99 59.81 46.11 59.4 45.32 59.7C43.93 60.21 42.38 60.32 41.26 61.4C39.89 62.73 39.98 64.64 40.24 66.36C40.36 67.28 40.49 68.16 40.66 69.06C35.35 67.98 29.55 68.49 24.83 70.99C22.79 72.07 21.27 73.52 20.09 75.21C14.53 74.72 9.74 72.5 8.08 67.23C6.74 62.98 8.56 58.69 12.91 57.38Z" fill="#201000" fill-opacity="1.000000" fill-rule="nonzero"/>
		<path id="Vector" d="M79.92 38.52C82.54 34.12 86.71 16.29 60.05 27.05C33.39 37.81 39.32 44.57 39.32 44.57L79.92 38.52Z" fill="#201000" fill-opacity="1.000000" fill-rule="nonzero"/>
		<path id="Vector" d="M29.11 45.78C31.31 39.09 38.12 39.13 42.9 40.89C44.84 41.63 46.46 42.64 47.27 43.59C47.27 43.59 47.19 36.14 58.89 32.76C68.95 29.86 75.71 31.25 79.51 37.48C79.75 37.88 79.99 38.3 80.21 38.75C85.3 39.64 89.45 44.03 89.8 49.25C90.05 53.18 87.96 56.98 84.78 59.2C85.66 65.08 86 70.16 84.6 73.18C82.29 78.22 76.92 79.84 71.25 80.12C63.35 80.1 55.51 80.01 51.22 73.49C48.55 70.66 46.35 66.34 44.37 61.37C34.89 60.71 26 55.2 29.11 45.78Z" fill="#F0DFA1" fill-opacity="1.000000" fill-rule="nonzero"/>
		<path id="Vector" d="M28.28 45.48C29.15 42.89 30.69 41.04 32.89 39.98C33.04 39.9 33.17 39.85 33.31 39.79C33.99 39.52 34.67 39.31 35.35 39.19C36.14 39.04 36.91 38.98 37.68 39C38.11 39 38.53 39.02 38.91 39.08C39.32 39.11 39.7 39.17 40.09 39.24C40.24 39.26 40.36 39.3 40.49 39.31C41.65 39.53 42.59 39.85 43.21 40.07C44.02 40.38 44.79 40.73 45.47 41.1C45.91 41.33 46.31 41.59 46.66 41.85C46.7 41.68 46.75 41.5 46.83 41.32C46.92 41.04 47.03 40.76 47.16 40.45C47.23 40.27 47.34 40.07 47.43 39.85C47.73 39.28 48.09 38.65 48.59 38.03C50.3 35.83 53.31 33.44 58.67 31.88C69.25 28.83 76.32 30.48 80.28 36.98C80.36 37.11 80.43 37.22 80.5 37.35C80.65 37.59 80.78 37.83 80.91 38.08C81.08 38.41 81.24 38.73 81.39 39.08C81.53 39.41 81.68 39.75 81.81 40.1C82.47 41.81 83 43.78 83.39 46.02C83.65 47.54 83.94 49.1 84.21 50.63C84.66 53.09 85.09 55.51 85.46 57.82C85.52 58.15 85.57 58.48 85.61 58.8C85.61 58.82 85.61 58.82 85.61 58.83C85.66 59.16 85.7 59.49 85.76 59.83C85.77 59.94 85.79 60.06 85.81 60.17C85.83 60.38 85.87 60.58 85.89 60.78C86.22 63.19 86.4 65.44 86.4 67.46C86.4 69.87 86.11 71.94 85.39 73.52C83.39 77.89 79.18 80.32 72.54 80.89C72.19 80.92 71.82 80.94 71.47 80.96C71.36 80.83 71.23 80.72 71.08 80.61C69.01 79.11 66.48 79.66 64.24 79C64.25 79 64.27 79 64.29 79C66.27 79.16 68.31 79.18 70.33 79.2C70.61 79.2 70.88 79.2 71.18 79.2C77.82 78.87 81.94 76.76 83.77 72.77C84.95 70.2 84.78 65.87 84.1 60.78C84.07 60.47 84.01 60.17 83.98 59.86C83.96 59.79 83.96 59.72 83.94 59.62C83.9 59.38 83.87 59.16 83.83 58.93C83.44 56.37 82.95 53.67 82.45 50.92C82.18 49.38 81.9 47.83 81.63 46.31C81.18 43.76 80.52 41.54 79.7 39.7C79.55 39.39 79.4 39.08 79.26 38.78C79.22 38.73 79.2 38.65 79.16 38.6C79.04 38.36 78.89 38.12 78.76 37.88C75.24 32.1 68.99 30.72 59.15 33.57C51.73 35.72 49.33 39.46 48.54 41.7C48.41 42.09 48.32 42.42 48.26 42.71C48.22 42.91 48.21 43.08 48.19 43.23C48.17 43.41 48.17 43.52 48.17 43.56C48.17 43.68 48.15 43.81 48.09 43.92C48 44.14 47.82 44.31 47.6 44.38C47.25 44.51 46.86 44.42 46.63 44.13C46.46 43.92 46.26 43.74 46.02 43.54C45.78 43.35 45.52 43.15 45.23 42.97C44.5 42.49 43.6 42.05 42.62 41.68C41.47 41.26 40.31 40.97 39.17 40.84C37.5 40.64 35.92 40.75 34.58 41.19C34.43 41.24 34.29 41.28 34.14 41.33C33.97 41.41 33.83 41.46 33.66 41.54C31.9 42.38 30.65 43.89 29.95 46C29.33 47.91 29.2 49.69 29.57 51.32C29.75 52.17 30.08 52.96 30.54 53.73C30.61 53.86 30.71 53.99 30.78 54.11C32.45 56.61 35.63 58.58 39.56 59.64C39.92 59.73 40.31 59.84 40.69 59.92C40.9 59.95 41.1 60.01 41.3 60.05C41.36 60.06 41.41 60.06 41.49 60.08C41.91 60.16 42.35 60.23 42.79 60.28C43.08 60.32 43.39 60.36 43.71 60.39C43.74 60.39 43.78 60.39 43.8 60.39C43.21 60.78 42.97 61.4 42.95 62.08C42.88 62.07 42.79 62.07 42.71 62.05C42.57 62.03 42.42 62.01 42.25 61.99C41.98 61.96 41.7 61.92 41.45 61.86C41.43 61.86 41.41 61.86 41.39 61.85C41.17 61.81 40.97 61.77 40.77 61.74C40.38 61.66 40 61.57 39.63 61.48C39.52 61.46 39.39 61.42 39.28 61.39C38.69 61.24 38.11 61.06 37.56 60.87C37.26 60.78 36.99 60.67 36.71 60.56C34.89 59.86 33.29 58.94 31.95 57.88C30.93 57.05 30.04 56.12 29.36 55.09L29.35 55.07C28.61 53.99 28.12 52.79 27.86 51.56C27.42 49.69 27.57 47.63 28.28 45.48Z" fill="#201000" fill-opacity="1.000000" fill-rule="nonzero"/>
		<path id="Vector" d="M74.26 61.18C74.55 61.18 74.83 61.04 75.01 60.78C78.28 55.6 75.84 50.19 70.48 42.56C70.2 42.16 69.65 42.07 69.25 42.34C68.84 42.62 68.75 43.17 69.03 43.57C74.77 51.75 75.95 55.99 73.51 59.83C73.25 60.23 73.36 60.78 73.78 61.04C73.93 61.15 74.09 61.18 74.26 61.18Z" fill="#201000" fill-opacity="1.000000" fill-rule="nonzero"/>
		<path id="Vector" d="M58.49 47.69C58.41 48.35 58.88 48.96 59.55 49.04C60.21 49.12 60.82 48.65 60.9 47.98C60.98 47.32 60.5 46.71 59.84 46.63C59.18 46.55 58.57 47.02 58.49 47.69Z" fill="#201000" fill-opacity="1.000000" fill-rule="evenodd"/>
		<path id="Vector" d="M76.25 46.09C76.16 46.75 76.64 47.36 77.3 47.44C77.97 47.52 78.57 47.05 78.65 46.38C78.73 45.72 78.26 45.11 77.6 45.03C76.93 44.95 76.33 45.42 76.25 46.09Z" fill="#201000" fill-opacity="1.000000" fill-rule="evenodd"/>
		<path id="Vector" d="M64.79 66.93C62.29 67.28 60.19 65.37 60.4 62.84C60.49 61.59 58.56 61.35 58.47 62.6C58.17 66.4 61.28 69.37 65.08 68.86C66.31 68.69 66.03 66.77 64.79 66.93Z" fill="#201000" fill-opacity="1.000000" fill-rule="nonzero"/>
		<path id="Vector" d="M60.87 41.43C60.65 40.91 60.08 40.75 59.59 40.91C59.07 41.1 58.56 41.26 58.05 41.44C57.55 41.61 57.35 42.27 57.53 42.73C57.75 43.24 58.32 43.41 58.82 43.24C59.33 43.06 59.84 42.9 60.36 42.71C60.85 42.53 61.06 41.89 60.87 41.43Z" fill="#201000" fill-opacity="1.000000" fill-rule="nonzero"/>
		<path id="Vector" d="M76.41 38.75L75.2 38.6C73.95 38.45 73.71 40.38 74.96 40.53L76.17 40.67C77.42 40.84 77.66 38.91 76.41 38.75Z" fill="#201000" fill-opacity="1.000000" fill-rule="nonzero"/>
		<path id="Vector" d="M12.29 161.26C30.96 161.26 45.3 140.46 54.94 126.43C55.53 125.58 56.1 124.74 56.65 123.95C64.62 112.47 75.82 92.49 74.06 84.47C72.9 79.16 69.89 78.89 67.48 78.68C66.34 78.59 65.26 78.48 64.45 77.89C59.41 74.2 57.73 68.86 56.5 64.97C55.73 62.52 55.18 60.76 53.99 60.06C52.32 59.07 51.21 59.55 50.7 59.92C49.56 60.74 49.23 62.56 49.76 64.89C50.46 67.94 54.23 76.22 54.37 76.57C54.58 77.01 55.09 77.21 55.55 77.01C55.99 76.81 56.19 76.3 55.99 75.84C55.95 75.75 52.15 67.37 51.49 64.49C51.09 62.75 51.33 61.64 51.75 61.33C52.13 61.06 52.81 61.4 53.09 61.57C53.69 61.94 54.25 63.66 54.81 65.5C56.04 69.39 57.9 75.29 63.41 79.33C64.62 80.21 66 80.34 67.32 80.45C69.61 80.65 71.43 80.81 72.33 84.85C73.78 91.46 64.58 109.42 55.2 122.94C54.65 123.73 54.08 124.57 53.49 125.42C43.54 139.89 28.5 161.72 9.31 159.3C3.93 158.62 0.51 156.74 -1.47 153.42C-5.58 146.53 -3.52 132.98 5.03 110.82C6.52 106.94 7.86 103.4 9.07 100.15C19.48 72.48 21.36 67.48 41.56 70.7C42.05 70.77 42.49 70.44 42.57 69.96C42.64 69.48 42.31 69.03 41.83 68.95C20.22 65.52 17.76 72.04 7.42 99.53C6.21 102.78 4.87 106.3 3.38 110.18C-5.38 132.89 -7.42 146.92 -2.99 154.32C-0.73 158.1 3.22 160.29 9.09 161.04C10.16 161.21 11.24 161.26 12.29 161.26Z" fill="#201000" fill-opacity="1.000000" fill-rule="nonzero"/>
		<path id="Vector" d="M51.23 76.37C51.42 76.37 51.6 76.32 51.77 76.21C52.15 75.91 52.24 75.36 51.95 74.97C51.51 74.37 48.28 67.76 47.64 63.26C47.41 61.7 47.64 60.58 48.24 60.27C48.81 59.97 49.8 60.32 50.65 61.13C51 61.46 51.57 61.44 51.9 61.09C52.23 60.74 52.21 60.17 51.86 59.84C50.43 58.49 48.7 58.04 47.43 58.69C46.66 59.09 45.43 60.25 45.89 63.5C46.59 68.35 49.99 75.29 50.52 76C50.7 76.24 50.96 76.37 51.23 76.37Z" fill="#201000" fill-opacity="1.000000" fill-rule="nonzero"/>
		<path id="Vector" d="M48.13 75.65C48.31 75.65 48.5 75.6 48.66 75.49C49.05 75.19 49.14 74.64 48.84 74.26C48.41 73.65 45.17 67.04 44.53 62.54C44.31 61.04 44.53 59.92 45.08 59.57C45.52 59.29 46.27 59.46 47.01 59.97C47.41 60.25 47.96 60.16 48.24 59.75C48.51 59.35 48.42 58.8 48.02 58.52C46.66 57.59 45.23 57.4 44.16 58.06C43.3 58.6 42.36 59.84 42.79 62.78C43.48 67.63 46.88 74.57 47.41 75.29C47.6 75.54 47.87 75.65 48.13 75.65Z" fill="#201000" fill-opacity="1.000000" fill-rule="nonzero"/>
		<path id="Vector" d="M45.23 75.45C45.41 75.45 45.59 75.4 45.74 75.29C46.13 74.99 46.22 74.44 45.92 74.06C45.49 73.45 42 66.03 41.35 61.48C41.13 59.92 41.35 58.8 41.96 58.48C42.53 58.19 43.52 58.54 44.36 59.35C44.71 59.68 45.28 59.66 45.61 59.31C45.94 58.96 45.92 58.39 45.58 58.06C44.14 56.7 42.42 56.26 41.15 56.91C40.38 57.31 39.15 58.47 39.61 61.72C40.29 66.51 43.91 74.3 44.51 75.1C44.69 75.32 44.97 75.45 45.23 75.45Z" fill="#201000" fill-opacity="1.000000" fill-rule="nonzero"/>
		<path id="Vector" d="M18.31 132.56C18.58 132.56 18.84 132.43 19.02 132.19C21.74 128.5 25.16 124.22 28.77 119.71C41.19 104.19 54.02 88.14 49.32 82.82C48.9 82.34 48.46 81.86 48 81.35C44.47 77.49 40.47 73.14 42.51 67.89C42.69 67.43 42.45 66.91 42.01 66.75C41.55 66.56 41.06 66.8 40.88 67.24C38.43 73.52 43.23 78.74 46.71 82.54C47.17 83.04 47.61 83.51 48.02 83.97C51.73 88.18 37.68 105.75 27.41 118.59C23.78 123.12 20.36 127.4 17.63 131.13C17.33 131.51 17.43 132.06 17.81 132.36C17.94 132.5 18.12 132.56 18.31 132.56Z" fill="#201000" fill-opacity="1.000000" fill-rule="nonzero"/>
		<path id="Vector" d="M106.96 135.24C107.09 135.24 107.22 135.2 107.35 135.15C107.79 134.93 107.96 134.4 107.75 133.97C96.18 110.76 84.25 84.65 84.89 81.99C85.31 80.87 86.03 79.82 86.8 78.72C88.53 76.24 90.51 73.41 90.09 68.33C89.89 65.94 89.3 58.72 84.98 58.74C84.51 58.74 84.1 59.15 84.1 59.64C84.1 60.12 84.51 60.52 84.98 60.52L85 60.52C86.73 60.52 87.89 63.28 88.31 68.49C88.67 72.94 86.99 75.38 85.33 77.73C84.51 78.92 83.72 80.06 83.2 81.4C81.72 85.39 102.04 126.56 106.14 134.76C106.32 135.06 106.63 135.24 106.96 135.24Z" fill="#201000" fill-opacity="1.000000" fill-rule="nonzero"/>
		<path id="Vector" d="M105.79 161.11C111.01 161.11 114.73 159.53 117.17 156.32C122.02 149.89 121.4 136.84 115.27 116.38C105.02 82.21 101.57 70.7 89.89 69.87C89.39 69.81 88.99 70.2 88.95 70.7C88.91 71.17 89.28 71.6 89.78 71.63C99.82 72.33 103.02 81.6 113.59 116.9C119.54 136.77 120.28 149.33 115.8 155.26C113.67 158.07 110.31 159.44 105.51 159.35C91.72 159.19 86.84 150.15 82.28 139.28C77.8 128.58 68.2 105.27 68.11 105.05C67.92 104.59 67.41 104.39 66.95 104.58C66.49 104.76 66.29 105.27 66.47 105.73C66.57 105.97 76.19 129.27 80.65 139.98C85.26 151.01 90.64 160.95 105.48 161.13C105.57 161.11 105.68 161.11 105.79 161.11Z" fill="#201000" fill-opacity="1.000000" fill-rule="nonzero"/>
		<path id="Vector" d="M92.13 102.17C92.24 102.08 92.35 102 92.48 101.91C96.24 99.38 104.78 98.53 107.83 99.12C107.94 99.14 108.05 99.18 108.16 99.19C108.89 99.38 109.35 99.65 109.59 100.06C109.85 100.48 109.7 101.01 109.28 101.27C109.15 101.36 109 101.4 108.86 101.4C108.58 101.4 108.31 101.27 108.12 101.03C106.93 100.24 96.79 100.83 93.23 103.55C93.23 103.55 93.21 103.55 93.21 103.57C93.05 103.69 92.86 103.75 92.68 103.75C92.42 103.75 92.15 103.64 91.98 103.4C91.67 103.03 91.74 102.48 92.13 102.17Z" fill="#201000" fill-opacity="1.000000" fill-rule="nonzero"/>
		<path id="Vector" d="M24.18 124.33C24.55 124.33 24.9 124.1 25.03 123.73L33.55 97.58C33.7 97.12 33.44 96.62 32.98 96.46C32.52 96.31 32.02 96.57 31.86 97.03L23.34 123.18C23.19 123.64 23.45 124.13 23.91 124.3C24 124.32 24.09 124.33 24.18 124.33Z" fill="#201000" fill-opacity="1.000000" fill-rule="nonzero"/>
		<path id="Vector" d="M10.05 96.86C10.06 96.81 10.06 96.75 10.08 96.72C17.28 95.5 27.67 100.11 31 103.44C31.35 103.79 31.35 104.34 31 104.69C30.83 104.85 30.59 104.94 30.37 104.94C30.15 104.94 29.91 104.85 29.75 104.69C26.57 101.51 15.88 96.86 9.38 98.68C9.64 98.09 9.88 97.49 10.05 96.86Z" fill="#201000" fill-opacity="1.000000" fill-rule="nonzero"/>
		<path id="Body" d="M77.38 153.42C77.77 153.42 78.12 153.16 78.23 152.8L82.05 139.87C82.19 139.41 81.92 138.91 81.46 138.77C80.98 138.62 80.5 138.89 80.36 139.35L76.54 152.28C76.39 152.74 76.66 153.24 77.12 153.38C77.22 153.42 77.31 153.42 77.38 153.42Z" fill="#201000" fill-opacity="1.000000" fill-rule="nonzero"/>
		<path id="Vector" d="M28.59 49.96C28.59 56.13 33.59 61.13 39.76 61.13C45.92 61.13 50.92 56.13 50.92 49.96C50.92 43.8 45.92 38.8 39.76 38.8C33.59 38.8 28.59 43.8 28.59 49.96Z" fill="#F0DFA1" fill-opacity="1.000000" fill-rule="evenodd"/>
		<path id="Vector" d="M30.35 49.96C30.35 54.18 33.77 57.6 37.99 57.6C42.21 57.6 45.63 54.18 45.63 49.96C45.63 45.75 42.21 42.33 37.99 42.33C33.77 42.33 30.35 45.75 30.35 49.96Z" fill="#201000" fill-opacity="1.000000" fill-rule="evenodd"/>
		<path id="Vector" d="M39.76 39.68C39.77 39.68 39.79 39.68 39.79 39.68C40.27 39.66 40.66 39.24 40.64 38.76C40.44 34.41 43.52 30.21 49.1 27.21C56.32 23.36 67.37 22.2 74.52 27.47C74.9 27.76 75.45 27.67 75.75 27.29C76.04 26.9 75.95 26.35 75.56 26.06C67.47 20.09 55.75 21.67 48.28 25.67C42.07 28.99 38.66 33.81 38.89 38.86C38.91 39.31 39.3 39.68 39.76 39.68Z" fill="#201000" fill-opacity="1.000000" fill-rule="nonzero"/>
		<path id="Vector" d="M31.86 134.95C32.43 133.06 33.46 131.72 34.6 130.85C33.59 128.17 33.05 124.83 33.29 122.2C33.62 118.48 34.93 114.91 36.71 112.58C36.56 111.88 36.43 111.06 36.36 110.12C36.29 109.29 36.25 108.4 36.21 107.39C36.08 101.93 36.67 93.91 37.5 83.68C37.81 79.86 38.1 76.17 38.31 72.88C38.32 72.59 38.34 72.29 38.36 72C38.38 71.71 38.4 71.41 38.41 71.12C38.43 70.82 38.45 70.55 38.47 70.26C38.49 69.72 38.53 69.19 38.54 68.69C38.54 68.64 38.54 68.57 38.54 68.51C38.58 67.54 38.6 66.66 38.6 65.83C38.6 65.33 38.99 64.95 39.48 64.95C39.96 64.95 40.36 65.35 40.36 65.83C40.36 66.71 40.34 67.68 40.31 68.73C40.31 68.8 40.31 68.88 40.29 68.97C40.29 69.17 40.27 69.37 40.27 69.58C40.25 69.89 40.23 70.2 40.23 70.51C40.22 70.66 40.22 70.82 40.22 70.97C40.22 71.03 40.22 71.08 40.2 71.12C40.18 71.41 40.16 71.71 40.14 72C40.12 72.29 40.1 72.59 40.09 72.88C39.89 76.21 39.57 79.95 39.26 83.83C38.73 90.33 38.07 98.74 37.99 105.03C37.98 106.08 37.98 107.05 38.01 107.97C38.05 109.11 38.1 110.14 38.21 111C38.27 110.97 38.31 110.93 38.36 110.89C39.44 110.07 40.62 109.74 41.7 109.94C42.86 110.14 43.69 110.95 43.89 112.09C44.15 113.5 43.45 115.08 42.22 115.83C40.99 116.58 39.46 116.4 38.07 115.32C37.85 115.15 37.65 114.91 37.46 114.62C36.23 116.66 35.33 119.47 35.07 122.35C34.83 124.94 35.37 127.75 36.16 129.95C36.67 129.75 37.17 129.62 37.65 129.55C39.28 129.33 40.71 129.84 41.39 130.89C41.74 131.42 42.16 132.58 41.11 134.21C40.01 135.94 38.67 135.7 38.16 135.52C37.11 135.15 36.16 134.05 35.37 132.52C34.63 133.18 33.97 134.14 33.57 135.46C33.13 136.91 31.97 142.03 35.59 146.86C35.75 147.09 35.92 147.31 36.1 147.51C36.47 147.93 36.87 148.35 37.33 148.79C41.35 152.54 49.47 156.21 65.94 156.06C74.42 155.99 81.16 155.92 86.53 155.84C86.82 155.84 87.11 155.83 87.41 155.83C88.49 155.81 89.52 155.79 90.49 155.79C91.47 155.77 92.4 155.75 93.26 155.75C93.58 155.75 93.89 155.73 94.18 155.73C94.39 155.73 94.59 155.73 94.77 155.72C94.84 155.72 94.92 155.72 94.99 155.72C94.97 156.3 94.95 156.89 94.94 157.48C94.88 157.48 94.83 157.48 94.77 157.48C94.57 157.48 94.39 157.48 94.18 157.5C94.09 157.5 93.98 157.5 93.89 157.5C93.52 157.5 93.14 157.52 92.75 157.52C92.46 157.52 92.18 157.53 91.87 157.53C90.51 157.55 89.02 157.57 87.41 157.59C87.11 157.59 86.82 157.59 86.53 157.61C81.16 157.68 74.42 157.75 65.96 157.83C65.63 157.83 65.32 157.83 64.99 157.83C51.21 157.83 41.52 155.2 36.07 150.02C35.62 149.62 35.22 149.18 34.83 148.74C34.61 148.46 34.39 148.19 34.17 147.91C30.04 142.42 31.36 136.6 31.86 134.95ZM39.13 113.94C39.7 114.38 40.55 114.8 41.28 114.34C41.89 113.98 42.27 113.11 42.14 112.42C42.07 111.99 41.81 111.76 41.37 111.68C41.26 111.66 41.15 111.65 41.06 111.65C40.55 111.65 40 111.87 39.41 112.31C39.13 112.51 38.86 112.77 38.6 113.04C38.75 113.48 38.91 113.78 39.13 113.94ZM38.71 133.85C38.84 133.9 39.13 133.99 39.61 133.26C39.83 132.91 40.16 132.28 39.89 131.84C39.66 131.48 39.08 131.28 38.36 131.28C38.2 131.28 38.03 131.29 37.86 131.31C37.53 131.37 37.19 131.44 36.84 131.59C37.44 132.82 38.12 133.66 38.71 133.85Z" fill="#201000" fill-opacity="1.000000" fill-rule="nonzero"/>
		<path id="Vector" d="M94.72 155.18L87.37 155.18L87.37 158.42L94.72 158.42L94.72 155.18Z" fill="#F0DFA1" fill-opacity="1.000000" fill-rule="evenodd"/>
		<path id="Vector" d="M87.37 154.3L94.72 154.3C94.83 154.3 94.92 154.32 95.01 154.36C95.36 154.49 95.6 154.8 95.6 155.18L95.6 158.42C95.6 158.65 95.5 158.86 95.36 159C95.27 159.11 95.14 159.19 95.01 159.24C94.92 159.28 94.83 159.3 94.72 159.3L87.37 159.3C86.87 159.3 86.49 158.89 86.49 158.42L86.49 155.18C86.49 154.71 86.89 154.3 87.37 154.3ZM88.25 157.55L93.83 157.55L93.83 156.08L88.25 156.08L88.25 157.55Z" fill="#201000" fill-opacity="1.000000" fill-rule="nonzero"/>
		<path id="Vector" d="M41.37 61.44L36.97 61.44L36.97 72.02L41.37 72.02L41.37 61.44Z" fill="#F0DFA1" fill-opacity="1.000000" fill-rule="evenodd"/>
		<path id="Vector" d="M37.85 60.95L37.85 71.14L40.49 71.14L40.49 60.95L42.25 60.95L42.25 72.02C42.25 72.18 42.2 72.35 42.12 72.48C41.98 72.72 41.72 72.88 41.41 72.9C41.39 72.9 41.37 72.9 41.37 72.9L36.96 72.9C36.49 72.9 36.08 72.51 36.08 72.02L36.08 60.95L37.85 60.95Z" fill="#201000" fill-opacity="1.000000" fill-rule="nonzero"/>
		<path id="Vector" d="M33.31 39.79C34.03 39.33 34.82 38.95 35.62 38.65C36.65 38.29 37.74 38.05 38.87 37.96C39.17 37.94 39.46 37.92 39.75 37.92C40.05 37.92 40.34 37.94 40.64 37.96C40.78 37.96 40.95 37.97 41.09 37.99C42.82 38.18 44.46 38.75 45.89 39.59C46.33 39.85 46.75 40.14 47.16 40.45C47.39 40.65 47.63 40.86 47.87 41.06C48.11 41.28 48.33 41.5 48.55 41.72C48.94 42.12 49.29 42.56 49.62 43.02C51.01 44.99 51.82 47.38 51.82 49.96C51.82 53.25 50.5 56.23 48.37 58.39C48.29 58.47 48.22 58.54 48.15 58.61C48.06 58.71 47.94 58.8 47.85 58.89C47.71 59.02 47.58 59.15 47.43 59.26C47.21 59.44 46.99 59.61 46.75 59.77C46.55 59.92 46.33 60.05 46.13 60.19C45.78 60.41 45.43 60.61 45.06 60.78C44.88 60.87 44.68 60.96 44.49 61.04C44.27 61.13 44.05 61.22 43.83 61.29C43.46 61.42 43.1 61.53 42.73 61.62C42.58 61.66 42.44 61.7 42.31 61.72C42.03 61.77 41.77 61.83 41.5 61.86C41.48 61.86 41.46 61.86 41.44 61.86C41.24 61.9 41.04 61.92 40.84 61.92C40.51 61.96 40.16 61.96 39.83 61.96C39.79 61.96 39.77 61.96 39.74 61.96C38.8 61.96 37.9 61.85 37.02 61.62C36.73 61.55 36.43 61.48 36.14 61.39C33.03 60.39 30.48 58.17 29.03 55.31C28.44 54.15 28.04 52.88 27.86 51.54C27.78 51.01 27.75 50.46 27.75 49.91C27.71 45.7 29.95 41.94 33.31 39.79ZM37.84 60.08C38.4 60.19 38.97 60.25 39.53 60.27C39.61 60.27 39.68 60.27 39.77 60.27C40.08 60.27 40.38 60.25 40.69 60.23C40.89 60.21 41.11 60.19 41.32 60.16C41.37 60.16 41.44 60.14 41.5 60.12C42 60.05 42.47 59.92 42.93 59.77C43.41 59.62 43.85 59.44 44.29 59.22C44.82 58.96 45.34 58.65 45.82 58.3C45.91 58.25 45.98 58.17 46.05 58.12C46.2 58.01 46.33 57.9 46.48 57.79C46.73 57.57 46.97 57.35 47.19 57.11C48.99 55.25 50.09 52.74 50.09 49.96C50.09 47.71 49.36 45.63 48.13 43.92C47.98 43.72 47.82 43.5 47.65 43.32C47.56 43.21 47.47 43.12 47.38 43.01C46.81 42.38 46.16 41.83 45.45 41.37C43.83 40.31 41.89 39.68 39.81 39.68L39.79 39.68C39.09 39.68 38.43 39.75 37.77 39.88C36.65 40.1 35.6 40.51 34.63 41.08C34.47 41.17 34.3 41.28 34.16 41.37C31.34 43.21 29.51 46.38 29.51 49.98C29.51 50.46 29.55 50.92 29.6 51.38C29.73 52.32 29.99 53.21 30.35 54.06C30.89 55.27 31.64 56.37 32.58 57.29C33.95 58.69 35.79 59.7 37.84 60.08Z" fill="#201000" fill-opacity="1.000000" fill-rule="nonzero"/>
		<path id="Vector" d="M85.5 60.03C85.44 60.06 85.37 60.1 85.31 60.14C85.19 59.53 85.04 58.93 84.85 58.32C85.08 58.17 85.28 58.01 85.48 57.84C87.72 55.95 89.15 53.12 89.15 49.98C89.15 45.34 86.07 41.41 81.83 40.12C81.48 40.01 81.13 39.94 80.76 39.87C80.72 39.87 80.71 39.85 80.67 39.85C80.52 39.22 80.36 38.62 80.17 37.99C80.19 37.99 80.19 37.99 80.21 37.99C80.45 38.01 80.69 38.05 80.91 38.08C86.58 39.06 90.91 44.02 90.91 49.96C90.91 53.64 89.26 56.94 86.66 59.15C86.38 59.38 86.08 59.61 85.79 59.81C85.68 59.9 85.59 59.95 85.5 60.03Z" fill="#201000" fill-opacity="1.000000" fill-rule="nonzero"/>
	</g>
</svg>
