<svg xmlns="http://www.w3.org/2000/svg" style="display: none;">
  <symbol id="icon-instagram" viewBox="0 0 31 31">
    <circle cx="15.5" cy="15.5" r="15.5" fill="#F0DFA1"/>
    <mask id="path-2-inside-1_330_1508" fill="white">
      <path fill-rule="evenodd" clip-rule="evenodd" d="M10 6C7.79086 6 6 7.79086 6 10V21C6 23.2091 7.79086 25 10 25H21C23.2091 25 25 23.2091 25 21V10C25 7.79086 23.2091 6 21 6H10ZM15.5 18.9545C17.4079 18.9545 18.9545 17.4079 18.9545 15.5C18.9545 13.5921 17.4079 12.0455 15.5 12.0455C13.5921 12.0455 12.0455 13.5921 12.0455 15.5C12.0455 17.4079 13.5921 18.9545 15.5 18.9545Z"/>
    </mask>
    <path fill-rule="evenodd" clip-rule="evenodd" d="M10 6C7.79086 6 6 7.79086 6 10V21C6 23.2091 7.79086 25 10 25H21C23.2091 25 25 23.2091 25 21V10C25 7.79086 23.2091 6 21 6H10ZM15.5 18.9545C17.4079 18.9545 18.9545 17.4079 18.9545 15.5C18.9545 13.5921 17.4079 12.0455 15.5 12.0455C13.5921 12.0455 12.0455 13.5921 12.0455 15.5C12.0455 17.4079 13.5921 18.9545 15.5 18.9545Z" fill="#A24878"/>
    <path d="M8 10C8 8.89543 8.89543 8 10 8V4C6.68629 4 4 6.68629 4 10H8ZM8 21V10H4V21H8ZM10 23C8.89543 23 8 22.1046 8 21H4C4 24.3137 6.68629 27 10 27V23ZM21 23H10V27H21V23ZM23 21C23 22.1046 22.1046 23 21 23V27C24.3137 27 27 24.3137 27 21H23ZM23 10V21H27V10H23ZM21 8C22.1046 8 23 8.89543 23 10H27C27 6.68629 24.3137 4 21 4V8ZM10 8H21V4H10V8ZM16.9545 15.5C16.9545 16.3033 16.3033 16.9545 15.5 16.9545V20.9545C18.5125 20.9545 20.9545 18.5125 20.9545 15.5H16.9545ZM15.5 14.0455C16.3033 14.0455 16.9545 14.6967 16.9545 15.5H20.9545C20.9545 12.4875 18.5125 10.0455 15.5 10.0455V14.0455ZM14.0455 15.5C14.0455 14.6967 14.6967 14.0455 15.5 14.0455V10.0455C12.4875 10.0455 10.0455 12.4875 10.0455 15.5H14.0455ZM15.5 16.9545C14.6967 16.9545 14.0455 16.3033 14.0455 15.5H10.0455C10.0455 18.5125 12.4875 20.9545 15.5 20.9545V16.9545Z" fill="black" mask="url(#path-2-inside-1_330_1508)"/>
    <circle cx="21" cy="10" r="1" fill="black"/>
  </symbol>

  <symbol id="icon-facebook" viewBox="0 0 31 31">
    <circle cx="15.5" cy="15.5" r="15.5" fill="#F0DFA1"/>
    <path d="M18.9962 13.322H17.6183C17.5217 12.4938 17.3865 10.8905 17.6183 10.2344C17.7563 9.84351 18.2954 9.63585 19.168 9.53182C20.385 9.38676 21.3842 8.44481 21.3842 7.21919C21.3842 5.99356 20.3891 4.99572 19.1694 5.11611C17.1091 5.31947 14.6619 5.82564 13.7316 6.90561C12.4183 8.43009 12.4119 12.0114 12.5728 13.6114H10.2236C9.54784 13.6114 9 14.1593 9 14.835C9 16.6371 10.4609 18.098 12.263 18.098H12.5728V25.5376C12.5728 26.9308 13.7023 28.0603 15.0955 28.0603C16.4888 28.0603 17.6183 26.9308 17.6183 25.5376V18.098H18.9962C20.3151 18.098 21.3842 17.0289 21.3842 15.71C21.3842 14.3911 20.3151 13.322 18.9962 13.322Z" fill="#2A7BAD" stroke="black" stroke-width="2"/>
  </symbol>

  <symbol id="icon-telegram" viewBox="0 0 31 31">
    <circle cx="15.5" cy="15.5" r="15.5" fill="#F0DFA1"/>
    <path d="M11.7797 20.5685C11.9215 19.8178 17.914 14.1687 20.8925 11.438C20.9043 11.3899 20.9138 11.2864 20.8571 11.2575C20.8003 11.2287 20.6679 11.2936 20.6088 11.3297L10.1486 18.8001C9.13216 18.2347 6.99993 17.0606 6.60279 16.8874C6.10638 16.6708 6 16.4543 6 15.7686C6 15.2201 6.73281 14.8183 7.09921 14.686L23.9419 7.14347C24.202 7.0352 24.8142 6.88363 25.183 7.14347C25.5517 7.40331 25.6439 8.02163 25.6439 8.29831C24.4856 13.4229 22.013 23.7876 21.3889 24.2495C20.7649 24.7114 17.4412 22.8059 15.8574 21.7955C15.0773 23.251 13.2831 26.0828 12.347 25.7652C11.1769 25.3682 11.6024 21.5068 11.7797 20.5685Z" fill="#6CABD1" stroke="black" stroke-width="2"/>
  </symbol>
</svg>
